<mxfile host="app.diagrams.net" agent="Mozilla/5.0 (Windows NT 10.0; Win64; x64) AppleWebKit/537.36 (KHTML, like Gecko) Chrome/127.0.0.0 Safari/537.36" version="24.7.6">
  <diagram name="Page-1" id="ueFhTSfT045QlP724NDW">
    <mxGraphModel grid="1" page="1" gridSize="10" guides="1" tooltips="1" connect="1" arrows="1" fold="1" pageScale="1" pageWidth="850" pageHeight="1100" math="0" shadow="0">
      <root>
        <mxCell id="0" />
        <mxCell id="1" parent="0" />
        <mxCell id="kL7tGmFYRtekbOon5jF7-14" style="rounded=0;orthogonalLoop=1;jettySize=auto;html=1;exitX=1;exitY=0;exitDx=0;exitDy=0;entryX=0.5;entryY=1;entryDx=0;entryDy=0;endArrow=none;endFill=0;" edge="1" parent="1" source="s-7C3alnSeoSzACvi8qJ-190" target="kL7tGmFYRtekbOon5jF7-1">
          <mxGeometry relative="1" as="geometry" />
        </mxCell>
        <mxCell id="kL7tGmFYRtekbOon5jF7-15" style="rounded=0;orthogonalLoop=1;jettySize=auto;html=1;exitX=0.5;exitY=0;exitDx=0;exitDy=0;endArrow=none;endFill=0;" edge="1" parent="1" source="s-7C3alnSeoSzACvi8qJ-109" target="kL7tGmFYRtekbOon5jF7-8">
          <mxGeometry relative="1" as="geometry" />
        </mxCell>
        <mxCell id="kL7tGmFYRtekbOon5jF7-17" style="edgeStyle=orthogonalEdgeStyle;rounded=0;orthogonalLoop=1;jettySize=auto;html=1;exitX=1;exitY=0.5;exitDx=0;exitDy=0;endArrow=none;endFill=0;" edge="1" parent="1" source="s-7C3alnSeoSzACvi8qJ-187" target="kL7tGmFYRtekbOon5jF7-4">
          <mxGeometry relative="1" as="geometry" />
        </mxCell>
        <mxCell id="kL7tGmFYRtekbOon5jF7-19" style="rounded=0;orthogonalLoop=1;jettySize=auto;html=1;exitX=0.5;exitY=0;exitDx=0;exitDy=0;entryX=0.5;entryY=1;entryDx=0;entryDy=0;endArrow=none;endFill=0;" edge="1" parent="1" source="634n50XaCfVM70tC2YM0-1" target="iBV01ZASUmmkMeYfeegj-22">
          <mxGeometry relative="1" as="geometry" />
        </mxCell>
        <mxCell id="s-7C3alnSeoSzACvi8qJ-14" style="rounded=0;orthogonalLoop=1;jettySize=auto;html=1;exitX=1;exitY=1;exitDx=0;exitDy=0;entryX=0.5;entryY=0;entryDx=0;entryDy=0;endArrow=none;endFill=0;" edge="1" parent="1" source="s-7C3alnSeoSzACvi8qJ-186" target="kL7tGmFYRtekbOon5jF7-3">
          <mxGeometry relative="1" as="geometry" />
        </mxCell>
        <mxCell id="s-7C3alnSeoSzACvi8qJ-16" style="rounded=0;orthogonalLoop=1;jettySize=auto;html=1;exitX=1;exitY=0.25;exitDx=0;exitDy=0;entryX=0;entryY=0.5;entryDx=0;entryDy=0;endArrow=none;endFill=0;" edge="1" parent="1" source="iBV01ZASUmmkMeYfeegj-1" target="s-7C3alnSeoSzACvi8qJ-15">
          <mxGeometry relative="1" as="geometry" />
        </mxCell>
        <mxCell id="iBV01ZASUmmkMeYfeegj-1" value="User" style="rounded=0;whiteSpace=wrap;html=1;" vertex="1" parent="1">
          <mxGeometry x="-1780" y="470" width="120" height="50" as="geometry" />
        </mxCell>
        <mxCell id="kL7tGmFYRtekbOon5jF7-21" style="rounded=0;orthogonalLoop=1;jettySize=auto;html=1;exitX=0.5;exitY=0;exitDx=0;exitDy=0;entryX=0.5;entryY=1;entryDx=0;entryDy=0;endArrow=none;endFill=0;" edge="1" parent="1" source="iBV01ZASUmmkMeYfeegj-22" target="iBV01ZASUmmkMeYfeegj-36">
          <mxGeometry relative="1" as="geometry" />
        </mxCell>
        <mxCell id="s-7C3alnSeoSzACvi8qJ-120" style="edgeStyle=none;rounded=0;orthogonalLoop=1;jettySize=auto;html=1;exitX=1;exitY=0;exitDx=0;exitDy=0;entryX=0;entryY=0.5;entryDx=0;entryDy=0;endArrow=none;endFill=0;" edge="1" parent="1" source="iBV01ZASUmmkMeYfeegj-22" target="s-7C3alnSeoSzACvi8qJ-114">
          <mxGeometry relative="1" as="geometry" />
        </mxCell>
        <mxCell id="s-7C3alnSeoSzACvi8qJ-165" style="edgeStyle=none;rounded=0;orthogonalLoop=1;jettySize=auto;html=1;exitX=1;exitY=0.5;exitDx=0;exitDy=0;entryX=0;entryY=0.5;entryDx=0;entryDy=0;endArrow=none;endFill=0;" edge="1" parent="1" source="iBV01ZASUmmkMeYfeegj-22" target="s-7C3alnSeoSzACvi8qJ-164">
          <mxGeometry relative="1" as="geometry" />
        </mxCell>
        <mxCell id="iBV01ZASUmmkMeYfeegj-22" value="Orders" style="rounded=0;whiteSpace=wrap;html=1;" vertex="1" parent="1">
          <mxGeometry x="-1670" y="-350" width="120" height="60" as="geometry" />
        </mxCell>
        <mxCell id="s-7C3alnSeoSzACvi8qJ-143" style="edgeStyle=none;rounded=0;orthogonalLoop=1;jettySize=auto;html=1;exitX=1;exitY=0;exitDx=0;exitDy=0;entryX=0;entryY=1;entryDx=0;entryDy=0;endArrow=none;endFill=0;" edge="1" parent="1" source="iBV01ZASUmmkMeYfeegj-36" target="s-7C3alnSeoSzACvi8qJ-139">
          <mxGeometry relative="1" as="geometry" />
        </mxCell>
        <mxCell id="s-7C3alnSeoSzACvi8qJ-144" style="rounded=0;orthogonalLoop=1;jettySize=auto;html=1;exitX=1;exitY=1;exitDx=0;exitDy=0;entryX=0;entryY=0;entryDx=0;entryDy=0;endArrow=none;endFill=0;" edge="1" parent="1" source="iBV01ZASUmmkMeYfeegj-36" target="s-7C3alnSeoSzACvi8qJ-140">
          <mxGeometry relative="1" as="geometry" />
        </mxCell>
        <mxCell id="iBV01ZASUmmkMeYfeegj-36" value="Shipement" style="rounded=0;whiteSpace=wrap;html=1;" vertex="1" parent="1">
          <mxGeometry x="-1670" y="-740" width="120" height="60" as="geometry" />
        </mxCell>
        <mxCell id="iBV01ZASUmmkMeYfeegj-51" value="Payment" style="rounded=0;whiteSpace=wrap;html=1;" vertex="1" parent="1">
          <mxGeometry x="-1150" y="-350" width="120" height="60" as="geometry" />
        </mxCell>
        <mxCell id="kL7tGmFYRtekbOon5jF7-25" style="rounded=0;orthogonalLoop=1;jettySize=auto;html=1;exitX=1;exitY=0.5;exitDx=0;exitDy=0;entryX=0;entryY=0.5;entryDx=0;entryDy=0;endArrow=none;endFill=0;" edge="1" parent="1" source="s-7C3alnSeoSzACvi8qJ-182" target="kL7tGmFYRtekbOon5jF7-9">
          <mxGeometry relative="1" as="geometry" />
        </mxCell>
        <mxCell id="kL7tGmFYRtekbOon5jF7-28" style="rounded=0;orthogonalLoop=1;jettySize=auto;html=1;exitX=0;exitY=1;exitDx=0;exitDy=0;entryX=0.25;entryY=0;entryDx=0;entryDy=0;endArrow=none;endFill=0;" edge="1" parent="1" source="634n50XaCfVM70tC2YM0-10" target="kL7tGmFYRtekbOon5jF7-5">
          <mxGeometry relative="1" as="geometry" />
        </mxCell>
        <mxCell id="kL7tGmFYRtekbOon5jF7-30" style="edgeStyle=orthogonalEdgeStyle;rounded=0;orthogonalLoop=1;jettySize=auto;html=1;exitX=1;exitY=0.5;exitDx=0;exitDy=0;entryX=0;entryY=0.5;entryDx=0;entryDy=0;endArrow=none;endFill=0;" edge="1" parent="1" source="s-7C3alnSeoSzACvi8qJ-123" target="kL7tGmFYRtekbOon5jF7-6">
          <mxGeometry relative="1" as="geometry" />
        </mxCell>
        <mxCell id="s-7C3alnSeoSzACvi8qJ-61" style="rounded=0;orthogonalLoop=1;jettySize=auto;html=1;exitX=0;exitY=1;exitDx=0;exitDy=0;endArrow=none;endFill=0;" edge="1" parent="1" source="iBV01ZASUmmkMeYfeegj-69" target="s-7C3alnSeoSzACvi8qJ-60">
          <mxGeometry relative="1" as="geometry" />
        </mxCell>
        <mxCell id="s-7C3alnSeoSzACvi8qJ-64" style="rounded=0;orthogonalLoop=1;jettySize=auto;html=1;exitX=0;exitY=0.75;exitDx=0;exitDy=0;entryX=1;entryY=0.5;entryDx=0;entryDy=0;endArrow=none;endFill=0;" edge="1" parent="1" source="iBV01ZASUmmkMeYfeegj-69" target="s-7C3alnSeoSzACvi8qJ-63">
          <mxGeometry relative="1" as="geometry" />
        </mxCell>
        <mxCell id="s-7C3alnSeoSzACvi8qJ-69" style="rounded=0;orthogonalLoop=1;jettySize=auto;html=1;exitX=0.75;exitY=0;exitDx=0;exitDy=0;entryX=0.5;entryY=1;entryDx=0;entryDy=0;endArrow=none;endFill=0;" edge="1" parent="1" source="iBV01ZASUmmkMeYfeegj-69" target="s-7C3alnSeoSzACvi8qJ-68">
          <mxGeometry relative="1" as="geometry" />
        </mxCell>
        <mxCell id="s-7C3alnSeoSzACvi8qJ-70" style="rounded=0;orthogonalLoop=1;jettySize=auto;html=1;exitX=1;exitY=1;exitDx=0;exitDy=0;entryX=0.5;entryY=0;entryDx=0;entryDy=0;endArrow=none;endFill=0;" edge="1" parent="1" source="iBV01ZASUmmkMeYfeegj-69" target="s-7C3alnSeoSzACvi8qJ-66">
          <mxGeometry relative="1" as="geometry" />
        </mxCell>
        <mxCell id="s-7C3alnSeoSzACvi8qJ-85" style="rounded=0;orthogonalLoop=1;jettySize=auto;html=1;exitX=0;exitY=0;exitDx=0;exitDy=0;entryX=1;entryY=1;entryDx=0;entryDy=0;endArrow=none;endFill=0;" edge="1" parent="1" source="iBV01ZASUmmkMeYfeegj-69" target="s-7C3alnSeoSzACvi8qJ-84">
          <mxGeometry relative="1" as="geometry" />
        </mxCell>
        <mxCell id="s-7C3alnSeoSzACvi8qJ-91" style="rounded=0;orthogonalLoop=1;jettySize=auto;html=1;exitX=0.75;exitY=1;exitDx=0;exitDy=0;entryX=0;entryY=0.5;entryDx=0;entryDy=0;endArrow=none;endFill=0;" edge="1" parent="1" source="iBV01ZASUmmkMeYfeegj-69" target="s-7C3alnSeoSzACvi8qJ-90">
          <mxGeometry relative="1" as="geometry" />
        </mxCell>
        <mxCell id="iBV01ZASUmmkMeYfeegj-69" value="Product" style="rounded=0;whiteSpace=wrap;html=1;" vertex="1" parent="1">
          <mxGeometry x="-2650" y="-90" width="120" height="60" as="geometry" />
        </mxCell>
        <mxCell id="s-7C3alnSeoSzACvi8qJ-83" style="rounded=0;orthogonalLoop=1;jettySize=auto;html=1;exitX=1;exitY=0;exitDx=0;exitDy=0;endArrow=none;endFill=0;" edge="1" parent="1" source="iBV01ZASUmmkMeYfeegj-92" target="s-7C3alnSeoSzACvi8qJ-80">
          <mxGeometry relative="1" as="geometry" />
        </mxCell>
        <mxCell id="iBV01ZASUmmkMeYfeegj-92" value="Category" style="rounded=0;whiteSpace=wrap;html=1;" vertex="1" parent="1">
          <mxGeometry x="-2900" y="-375" width="120" height="60" as="geometry" />
        </mxCell>
        <mxCell id="s-7C3alnSeoSzACvi8qJ-36" style="rounded=0;orthogonalLoop=1;jettySize=auto;html=1;exitX=0.5;exitY=0;exitDx=0;exitDy=0;entryX=0;entryY=1;entryDx=0;entryDy=0;endArrow=none;endFill=0;" edge="1" parent="1" source="iBV01ZASUmmkMeYfeegj-101" target="s-7C3alnSeoSzACvi8qJ-34">
          <mxGeometry relative="1" as="geometry" />
        </mxCell>
        <mxCell id="s-7C3alnSeoSzACvi8qJ-43" style="rounded=0;orthogonalLoop=1;jettySize=auto;html=1;exitX=0.5;exitY=1;exitDx=0;exitDy=0;entryX=0.5;entryY=0;entryDx=0;entryDy=0;endArrow=none;endFill=0;" edge="1" parent="1" source="iBV01ZASUmmkMeYfeegj-101" target="s-7C3alnSeoSzACvi8qJ-41">
          <mxGeometry relative="1" as="geometry" />
        </mxCell>
        <mxCell id="s-7C3alnSeoSzACvi8qJ-44" style="rounded=0;orthogonalLoop=1;jettySize=auto;html=1;exitX=1;exitY=0.5;exitDx=0;exitDy=0;entryX=0;entryY=0.5;entryDx=0;entryDy=0;endArrow=none;endFill=0;" edge="1" parent="1" source="iBV01ZASUmmkMeYfeegj-101" target="s-7C3alnSeoSzACvi8qJ-42">
          <mxGeometry relative="1" as="geometry" />
        </mxCell>
        <mxCell id="iBV01ZASUmmkMeYfeegj-101" value="Cart" style="rounded=0;whiteSpace=wrap;html=1;" vertex="1" parent="1">
          <mxGeometry x="-2110" y="888" width="120" height="60" as="geometry" />
        </mxCell>
        <mxCell id="kL7tGmFYRtekbOon5jF7-24" style="rounded=0;orthogonalLoop=1;jettySize=auto;html=1;exitX=0;exitY=0.5;exitDx=0;exitDy=0;entryX=0.75;entryY=1;entryDx=0;entryDy=0;endArrow=none;endFill=0;" edge="1" parent="1" source="s-7C3alnSeoSzACvi8qJ-184" target="kL7tGmFYRtekbOon5jF7-9">
          <mxGeometry relative="1" as="geometry" />
        </mxCell>
        <mxCell id="s-7C3alnSeoSzACvi8qJ-173" style="rounded=0;orthogonalLoop=1;jettySize=auto;html=1;exitX=0;exitY=0;exitDx=0;exitDy=0;entryX=0.5;entryY=1;entryDx=0;entryDy=0;endArrow=none;endFill=0;" edge="1" parent="1" source="kL7tGmFYRtekbOon5jF7-1" target="s-7C3alnSeoSzACvi8qJ-172">
          <mxGeometry relative="1" as="geometry" />
        </mxCell>
        <mxCell id="kL7tGmFYRtekbOon5jF7-1" value="Wishlist" style="rounded=0;whiteSpace=wrap;html=1;" vertex="1" parent="1">
          <mxGeometry x="-1180" y="50" width="120" height="60" as="geometry" />
        </mxCell>
        <mxCell id="s-7C3alnSeoSzACvi8qJ-209" style="edgeStyle=none;rounded=0;orthogonalLoop=1;jettySize=auto;html=1;exitX=0;exitY=0;exitDx=0;exitDy=0;entryX=0.5;entryY=1;entryDx=0;entryDy=0;endArrow=none;endFill=0;" edge="1" parent="1" source="kL7tGmFYRtekbOon5jF7-3" target="s-7C3alnSeoSzACvi8qJ-208">
          <mxGeometry relative="1" as="geometry" />
        </mxCell>
        <mxCell id="s-7C3alnSeoSzACvi8qJ-210" style="edgeStyle=none;rounded=0;orthogonalLoop=1;jettySize=auto;html=1;exitX=0;exitY=1;exitDx=0;exitDy=0;entryX=0.5;entryY=0;entryDx=0;entryDy=0;endArrow=none;endFill=0;" edge="1" parent="1" source="kL7tGmFYRtekbOon5jF7-3" target="s-7C3alnSeoSzACvi8qJ-207">
          <mxGeometry relative="1" as="geometry" />
        </mxCell>
        <mxCell id="s-7C3alnSeoSzACvi8qJ-211" style="edgeStyle=none;rounded=0;orthogonalLoop=1;jettySize=auto;html=1;exitX=0.5;exitY=1;exitDx=0;exitDy=0;entryX=0.5;entryY=0;entryDx=0;entryDy=0;endArrow=none;endFill=0;" edge="1" parent="1" source="kL7tGmFYRtekbOon5jF7-3" target="s-7C3alnSeoSzACvi8qJ-206">
          <mxGeometry relative="1" as="geometry" />
        </mxCell>
        <mxCell id="s-7C3alnSeoSzACvi8qJ-212" style="edgeStyle=none;rounded=0;orthogonalLoop=1;jettySize=auto;html=1;exitX=1;exitY=0.5;exitDx=0;exitDy=0;entryX=0.5;entryY=0;entryDx=0;entryDy=0;endArrow=none;endFill=0;" edge="1" parent="1" source="kL7tGmFYRtekbOon5jF7-3" target="s-7C3alnSeoSzACvi8qJ-205">
          <mxGeometry relative="1" as="geometry" />
        </mxCell>
        <mxCell id="kL7tGmFYRtekbOon5jF7-3" value="Notifications" style="rounded=0;whiteSpace=wrap;html=1;" vertex="1" parent="1">
          <mxGeometry x="-1430" y="1005" width="120" height="60" as="geometry" />
        </mxCell>
        <mxCell id="s-7C3alnSeoSzACvi8qJ-200" style="edgeStyle=none;rounded=0;orthogonalLoop=1;jettySize=auto;html=1;exitX=1;exitY=0;exitDx=0;exitDy=0;entryX=0.5;entryY=1;entryDx=0;entryDy=0;endArrow=none;endFill=0;" edge="1" parent="1" source="kL7tGmFYRtekbOon5jF7-4" target="s-7C3alnSeoSzACvi8qJ-195">
          <mxGeometry relative="1" as="geometry" />
        </mxCell>
        <mxCell id="s-7C3alnSeoSzACvi8qJ-201" style="edgeStyle=none;rounded=0;orthogonalLoop=1;jettySize=auto;html=1;exitX=1;exitY=0.5;exitDx=0;exitDy=0;entryX=0.5;entryY=1;entryDx=0;entryDy=0;endArrow=none;endFill=0;" edge="1" parent="1" source="kL7tGmFYRtekbOon5jF7-4" target="s-7C3alnSeoSzACvi8qJ-192">
          <mxGeometry relative="1" as="geometry" />
        </mxCell>
        <mxCell id="s-7C3alnSeoSzACvi8qJ-202" style="edgeStyle=none;rounded=0;orthogonalLoop=1;jettySize=auto;html=1;exitX=1;exitY=1;exitDx=0;exitDy=0;entryX=0.5;entryY=0;entryDx=0;entryDy=0;endArrow=none;endFill=0;" edge="1" parent="1" source="kL7tGmFYRtekbOon5jF7-4" target="s-7C3alnSeoSzACvi8qJ-193">
          <mxGeometry relative="1" as="geometry" />
        </mxCell>
        <mxCell id="s-7C3alnSeoSzACvi8qJ-203" style="edgeStyle=none;rounded=0;orthogonalLoop=1;jettySize=auto;html=1;exitX=0;exitY=0.5;exitDx=0;exitDy=0;endArrow=none;endFill=0;" edge="1" parent="1" source="kL7tGmFYRtekbOon5jF7-4">
          <mxGeometry relative="1" as="geometry">
            <mxPoint x="-1180" y="760.3913043478265" as="targetPoint" />
          </mxGeometry>
        </mxCell>
        <mxCell id="s-7C3alnSeoSzACvi8qJ-204" style="edgeStyle=none;rounded=0;orthogonalLoop=1;jettySize=auto;html=1;exitX=0;exitY=1;exitDx=0;exitDy=0;entryX=0.5;entryY=0;entryDx=0;entryDy=0;endArrow=none;endFill=0;" edge="1" parent="1" source="kL7tGmFYRtekbOon5jF7-4" target="s-7C3alnSeoSzACvi8qJ-194">
          <mxGeometry relative="1" as="geometry" />
        </mxCell>
        <mxCell id="kL7tGmFYRtekbOon5jF7-4" value="Address" style="rounded=0;whiteSpace=wrap;html=1;" vertex="1" parent="1">
          <mxGeometry x="-1150" y="730" width="120" height="60" as="geometry" />
        </mxCell>
        <mxCell id="kL7tGmFYRtekbOon5jF7-5" value="&lt;br&gt;Inventory&lt;div&gt;&lt;br&gt;&lt;/div&gt;" style="rounded=0;whiteSpace=wrap;html=1;" vertex="1" parent="1">
          <mxGeometry x="-2940" y="265" width="120" height="60" as="geometry" />
        </mxCell>
        <mxCell id="s-7C3alnSeoSzACvi8qJ-131" style="rounded=0;orthogonalLoop=1;jettySize=auto;html=1;exitX=0;exitY=0;exitDx=0;exitDy=0;entryX=0.5;entryY=1;entryDx=0;entryDy=0;endArrow=none;endFill=0;" edge="1" parent="1" source="kL7tGmFYRtekbOon5jF7-6" target="s-7C3alnSeoSzACvi8qJ-126">
          <mxGeometry relative="1" as="geometry" />
        </mxCell>
        <mxCell id="s-7C3alnSeoSzACvi8qJ-132" style="edgeStyle=none;rounded=0;orthogonalLoop=1;jettySize=auto;html=1;exitX=0.75;exitY=0;exitDx=0;exitDy=0;entryX=0.5;entryY=1;entryDx=0;entryDy=0;endArrow=none;endFill=0;" edge="1" parent="1" source="kL7tGmFYRtekbOon5jF7-6" target="s-7C3alnSeoSzACvi8qJ-127">
          <mxGeometry relative="1" as="geometry" />
        </mxCell>
        <mxCell id="s-7C3alnSeoSzACvi8qJ-133" value="" style="edgeStyle=none;rounded=0;orthogonalLoop=1;jettySize=auto;html=1;endArrow=none;endFill=0;" edge="1" parent="1" source="kL7tGmFYRtekbOon5jF7-6" target="s-7C3alnSeoSzACvi8qJ-128">
          <mxGeometry relative="1" as="geometry" />
        </mxCell>
        <mxCell id="s-7C3alnSeoSzACvi8qJ-134" style="edgeStyle=none;rounded=0;orthogonalLoop=1;jettySize=auto;html=1;exitX=1;exitY=1;exitDx=0;exitDy=0;entryX=0.5;entryY=0;entryDx=0;entryDy=0;endArrow=none;endFill=0;" edge="1" parent="1" source="kL7tGmFYRtekbOon5jF7-6" target="s-7C3alnSeoSzACvi8qJ-129">
          <mxGeometry relative="1" as="geometry" />
        </mxCell>
        <mxCell id="s-7C3alnSeoSzACvi8qJ-147" style="rounded=0;orthogonalLoop=1;jettySize=auto;html=1;exitX=1;exitY=0.5;exitDx=0;exitDy=0;entryX=0;entryY=0.5;entryDx=0;entryDy=0;endArrow=none;endFill=0;" edge="1" parent="1" source="kL7tGmFYRtekbOon5jF7-6" target="s-7C3alnSeoSzACvi8qJ-145">
          <mxGeometry relative="1" as="geometry" />
        </mxCell>
        <mxCell id="kL7tGmFYRtekbOon5jF7-6" value="&lt;div&gt;OrderItem&lt;/div&gt;" style="rounded=0;whiteSpace=wrap;html=1;" vertex="1" parent="1">
          <mxGeometry x="-2320" y="-350" width="120" height="60" as="geometry" />
        </mxCell>
        <mxCell id="kL7tGmFYRtekbOon5jF7-7" value="&lt;div&gt;CartItem&lt;/div&gt;" style="rounded=0;whiteSpace=wrap;html=1;" vertex="1" parent="1">
          <mxGeometry x="-2680" y="880" width="120" height="60" as="geometry" />
        </mxCell>
        <mxCell id="kL7tGmFYRtekbOon5jF7-8" value="Review" style="rounded=0;whiteSpace=wrap;html=1;" vertex="1" parent="1">
          <mxGeometry x="-2125" y="200" width="120" height="60" as="geometry" />
        </mxCell>
        <mxCell id="s-7C3alnSeoSzACvi8qJ-179" style="edgeStyle=none;rounded=0;orthogonalLoop=1;jettySize=auto;html=1;exitX=0;exitY=0;exitDx=0;exitDy=0;entryX=0.5;entryY=1;entryDx=0;entryDy=0;endArrow=none;endFill=0;" edge="1" parent="1" source="kL7tGmFYRtekbOon5jF7-9" target="s-7C3alnSeoSzACvi8qJ-175">
          <mxGeometry relative="1" as="geometry" />
        </mxCell>
        <mxCell id="s-7C3alnSeoSzACvi8qJ-180" style="edgeStyle=none;rounded=0;orthogonalLoop=1;jettySize=auto;html=1;exitX=1;exitY=0;exitDx=0;exitDy=0;entryX=0.5;entryY=1;entryDx=0;entryDy=0;endArrow=none;endFill=0;" edge="1" parent="1" source="kL7tGmFYRtekbOon5jF7-9" target="s-7C3alnSeoSzACvi8qJ-176">
          <mxGeometry relative="1" as="geometry" />
        </mxCell>
        <mxCell id="s-7C3alnSeoSzACvi8qJ-181" style="edgeStyle=none;rounded=0;orthogonalLoop=1;jettySize=auto;html=1;exitX=0;exitY=1;exitDx=0;exitDy=0;entryX=0.5;entryY=0;entryDx=0;entryDy=0;endArrow=none;endFill=0;" edge="1" parent="1" source="kL7tGmFYRtekbOon5jF7-9" target="s-7C3alnSeoSzACvi8qJ-178">
          <mxGeometry relative="1" as="geometry" />
        </mxCell>
        <mxCell id="kL7tGmFYRtekbOon5jF7-9" value="WishlistItem" style="rounded=0;whiteSpace=wrap;html=1;" vertex="1" parent="1">
          <mxGeometry x="-1880" y="-60" width="120" height="60" as="geometry" />
        </mxCell>
        <mxCell id="s-7C3alnSeoSzACvi8qJ-7" style="rounded=0;orthogonalLoop=1;jettySize=auto;html=1;exitX=0.5;exitY=1;exitDx=0;exitDy=0;entryX=0;entryY=0;entryDx=0;entryDy=0;endArrow=none;endFill=0;" edge="1" parent="1" source="s-7C3alnSeoSzACvi8qJ-6" target="iBV01ZASUmmkMeYfeegj-1">
          <mxGeometry relative="1" as="geometry" />
        </mxCell>
        <mxCell id="s-7C3alnSeoSzACvi8qJ-6" value="&lt;u&gt;&lt;b&gt;UserID&lt;/b&gt;&lt;/u&gt;" style="ellipse;whiteSpace=wrap;html=1;" vertex="1" parent="1">
          <mxGeometry x="-1930" y="330" width="120" height="30" as="geometry" />
        </mxCell>
        <mxCell id="s-7C3alnSeoSzACvi8qJ-9" style="rounded=0;orthogonalLoop=1;jettySize=auto;html=1;exitX=0.5;exitY=1;exitDx=0;exitDy=0;entryX=0.75;entryY=0;entryDx=0;entryDy=0;endArrow=none;endFill=0;" edge="1" parent="1" source="s-7C3alnSeoSzACvi8qJ-8" target="iBV01ZASUmmkMeYfeegj-1">
          <mxGeometry relative="1" as="geometry" />
        </mxCell>
        <mxCell id="s-7C3alnSeoSzACvi8qJ-8" value="Username" style="ellipse;whiteSpace=wrap;html=1;" vertex="1" parent="1">
          <mxGeometry x="-1680" y="310" width="120" height="30" as="geometry" />
        </mxCell>
        <mxCell id="s-7C3alnSeoSzACvi8qJ-11" style="rounded=0;orthogonalLoop=1;jettySize=auto;html=1;exitX=1;exitY=0.5;exitDx=0;exitDy=0;entryX=0.25;entryY=1;entryDx=0;entryDy=0;endArrow=none;endFill=0;" edge="1" parent="1" source="s-7C3alnSeoSzACvi8qJ-10" target="iBV01ZASUmmkMeYfeegj-1">
          <mxGeometry relative="1" as="geometry" />
        </mxCell>
        <mxCell id="s-7C3alnSeoSzACvi8qJ-10" value="Password" style="ellipse;whiteSpace=wrap;html=1;" vertex="1" parent="1">
          <mxGeometry x="-1980" y="630" width="120" height="30" as="geometry" />
        </mxCell>
        <mxCell id="s-7C3alnSeoSzACvi8qJ-13" style="rounded=0;orthogonalLoop=1;jettySize=auto;html=1;exitX=0.5;exitY=0;exitDx=0;exitDy=0;entryX=0.5;entryY=1;entryDx=0;entryDy=0;endArrow=none;endFill=0;" edge="1" parent="1" source="s-7C3alnSeoSzACvi8qJ-12" target="iBV01ZASUmmkMeYfeegj-1">
          <mxGeometry relative="1" as="geometry" />
        </mxCell>
        <mxCell id="s-7C3alnSeoSzACvi8qJ-12" value="Phone Number" style="ellipse;whiteSpace=wrap;html=1;" vertex="1" parent="1">
          <mxGeometry x="-1780" y="700" width="120" height="30" as="geometry" />
        </mxCell>
        <mxCell id="s-7C3alnSeoSzACvi8qJ-15" value="Email" style="ellipse;whiteSpace=wrap;html=1;" vertex="1" parent="1">
          <mxGeometry x="-1480" y="450" width="120" height="30" as="geometry" />
        </mxCell>
        <mxCell id="s-7C3alnSeoSzACvi8qJ-19" style="rounded=0;orthogonalLoop=1;jettySize=auto;html=1;exitX=0;exitY=0.5;exitDx=0;exitDy=0;entryX=1;entryY=0.25;entryDx=0;entryDy=0;endArrow=none;endFill=0;" edge="1" parent="1" source="s-7C3alnSeoSzACvi8qJ-17" target="iBV01ZASUmmkMeYfeegj-1">
          <mxGeometry relative="1" as="geometry" />
        </mxCell>
        <mxCell id="s-7C3alnSeoSzACvi8qJ-17" value="LastName" style="ellipse;whiteSpace=wrap;html=1;" vertex="1" parent="1">
          <mxGeometry x="-1580" y="340" width="120" height="30" as="geometry" />
        </mxCell>
        <mxCell id="s-7C3alnSeoSzACvi8qJ-18" value="FirstName" style="ellipse;whiteSpace=wrap;html=1;" vertex="1" parent="1">
          <mxGeometry x="-1515" y="600" width="120" height="30" as="geometry" />
        </mxCell>
        <mxCell id="s-7C3alnSeoSzACvi8qJ-21" style="rounded=0;orthogonalLoop=1;jettySize=auto;html=1;exitX=1;exitY=0.5;exitDx=0;exitDy=0;entryX=0;entryY=1;entryDx=0;entryDy=0;endArrow=none;endFill=0;" edge="1" parent="1" source="s-7C3alnSeoSzACvi8qJ-20" target="iBV01ZASUmmkMeYfeegj-1">
          <mxGeometry relative="1" as="geometry" />
        </mxCell>
        <mxCell id="s-7C3alnSeoSzACvi8qJ-20" value="Role" style="ellipse;whiteSpace=wrap;html=1;" vertex="1" parent="1">
          <mxGeometry x="-2080" y="600" width="120" height="30" as="geometry" />
        </mxCell>
        <mxCell id="s-7C3alnSeoSzACvi8qJ-23" style="rounded=0;orthogonalLoop=1;jettySize=auto;html=1;exitX=1;exitY=0.5;exitDx=0;exitDy=0;entryX=0;entryY=0.25;entryDx=0;entryDy=0;endArrow=none;endFill=0;" edge="1" parent="1" source="s-7C3alnSeoSzACvi8qJ-22" target="iBV01ZASUmmkMeYfeegj-1">
          <mxGeometry relative="1" as="geometry" />
        </mxCell>
        <mxCell id="s-7C3alnSeoSzACvi8qJ-22" value="ProfilePictureUrl" style="ellipse;whiteSpace=wrap;html=1;" vertex="1" parent="1">
          <mxGeometry x="-1970" y="390" width="120" height="30" as="geometry" />
        </mxCell>
        <mxCell id="s-7C3alnSeoSzACvi8qJ-25" style="rounded=0;orthogonalLoop=1;jettySize=auto;html=1;exitX=0;exitY=0.5;exitDx=0;exitDy=0;entryX=1;entryY=1;entryDx=0;entryDy=0;endArrow=none;endFill=0;" edge="1" parent="1" source="s-7C3alnSeoSzACvi8qJ-18" target="iBV01ZASUmmkMeYfeegj-1">
          <mxGeometry relative="1" as="geometry" />
        </mxCell>
        <mxCell id="s-7C3alnSeoSzACvi8qJ-27" style="rounded=0;orthogonalLoop=1;jettySize=auto;html=1;exitX=0;exitY=0.5;exitDx=0;exitDy=0;entryX=0.75;entryY=1;entryDx=0;entryDy=0;endArrow=none;endFill=0;" edge="1" parent="1" source="s-7C3alnSeoSzACvi8qJ-26" target="iBV01ZASUmmkMeYfeegj-1">
          <mxGeometry relative="1" as="geometry" />
        </mxCell>
        <mxCell id="s-7C3alnSeoSzACvi8qJ-26" value="IsEmailVerified" style="ellipse;whiteSpace=wrap;html=1;" vertex="1" parent="1">
          <mxGeometry x="-1680" y="660" width="120" height="30" as="geometry" />
        </mxCell>
        <mxCell id="s-7C3alnSeoSzACvi8qJ-31" style="rounded=0;orthogonalLoop=1;jettySize=auto;html=1;exitX=0;exitY=0.5;exitDx=0;exitDy=0;entryX=1;entryY=0.75;entryDx=0;entryDy=0;endArrow=none;endFill=0;" edge="1" parent="1" source="s-7C3alnSeoSzACvi8qJ-28" target="iBV01ZASUmmkMeYfeegj-1">
          <mxGeometry relative="1" as="geometry" />
        </mxCell>
        <mxCell id="s-7C3alnSeoSzACvi8qJ-28" value="Token" style="ellipse;whiteSpace=wrap;html=1;" vertex="1" parent="1">
          <mxGeometry x="-1540" y="530" width="120" height="30" as="geometry" />
        </mxCell>
        <mxCell id="s-7C3alnSeoSzACvi8qJ-30" style="rounded=0;orthogonalLoop=1;jettySize=auto;html=1;exitX=1;exitY=0.5;exitDx=0;exitDy=0;entryX=0;entryY=0.75;entryDx=0;entryDy=0;endArrow=none;endFill=0;" edge="1" parent="1" source="s-7C3alnSeoSzACvi8qJ-29" target="iBV01ZASUmmkMeYfeegj-1">
          <mxGeometry relative="1" as="geometry" />
        </mxCell>
        <mxCell id="s-7C3alnSeoSzACvi8qJ-29" value="TokenExpiry" style="ellipse;whiteSpace=wrap;html=1;" vertex="1" parent="1">
          <mxGeometry x="-2110" y="500" width="120" height="30" as="geometry" />
        </mxCell>
        <mxCell id="s-7C3alnSeoSzACvi8qJ-37" style="rounded=0;orthogonalLoop=1;jettySize=auto;html=1;exitX=0.5;exitY=0;exitDx=0;exitDy=0;entryX=0.25;entryY=1;entryDx=0;entryDy=0;endArrow=none;endFill=0;" edge="1" parent="1" source="s-7C3alnSeoSzACvi8qJ-34" target="iBV01ZASUmmkMeYfeegj-1">
          <mxGeometry relative="1" as="geometry" />
        </mxCell>
        <mxCell id="s-7C3alnSeoSzACvi8qJ-34" value="Owns" style="rhombus;whiteSpace=wrap;html=1;" vertex="1" parent="1">
          <mxGeometry x="-1910" y="760" width="80" height="80" as="geometry" />
        </mxCell>
        <mxCell id="s-7C3alnSeoSzACvi8qJ-38" value="1" style="text;html=1;align=center;verticalAlign=middle;resizable=0;points=[];autosize=1;strokeColor=none;fillColor=none;" vertex="1" parent="1">
          <mxGeometry x="-1840" y="690" width="30" height="30" as="geometry" />
        </mxCell>
        <mxCell id="s-7C3alnSeoSzACvi8qJ-39" value="N" style="text;html=1;align=center;verticalAlign=middle;resizable=0;points=[];autosize=1;strokeColor=none;fillColor=none;" vertex="1" parent="1">
          <mxGeometry x="-1940" y="850" width="30" height="30" as="geometry" />
        </mxCell>
        <mxCell id="s-7C3alnSeoSzACvi8qJ-41" value="&lt;b&gt;&lt;u&gt;CartID&lt;/u&gt;&lt;/b&gt;" style="ellipse;whiteSpace=wrap;html=1;" vertex="1" parent="1">
          <mxGeometry x="-2070" y="1180" width="120" height="30" as="geometry" />
        </mxCell>
        <mxCell id="s-7C3alnSeoSzACvi8qJ-42" value="UserID" style="ellipse;whiteSpace=wrap;html=1;" vertex="1" parent="1">
          <mxGeometry x="-1870" y="1035" width="120" height="30" as="geometry" />
        </mxCell>
        <mxCell id="s-7C3alnSeoSzACvi8qJ-49" style="rounded=0;orthogonalLoop=1;jettySize=auto;html=1;exitX=0.5;exitY=0;exitDx=0;exitDy=0;entryX=0.5;entryY=1;entryDx=0;entryDy=0;endArrow=none;endFill=0;" edge="1" parent="1" source="s-7C3alnSeoSzACvi8qJ-45" target="kL7tGmFYRtekbOon5jF7-7">
          <mxGeometry relative="1" as="geometry" />
        </mxCell>
        <mxCell id="s-7C3alnSeoSzACvi8qJ-45" value="&lt;b&gt;&lt;u&gt;CartItemID&lt;/u&gt;&lt;/b&gt;" style="ellipse;whiteSpace=wrap;html=1;" vertex="1" parent="1">
          <mxGeometry x="-2680" y="985" width="120" height="30" as="geometry" />
        </mxCell>
        <mxCell id="s-7C3alnSeoSzACvi8qJ-47" style="rounded=0;orthogonalLoop=1;jettySize=auto;html=1;exitX=1;exitY=0.5;exitDx=0;exitDy=0;entryX=0;entryY=0.5;entryDx=0;entryDy=0;endArrow=none;endFill=0;" edge="1" parent="1" source="s-7C3alnSeoSzACvi8qJ-46" target="iBV01ZASUmmkMeYfeegj-101">
          <mxGeometry relative="1" as="geometry" />
        </mxCell>
        <mxCell id="s-7C3alnSeoSzACvi8qJ-48" style="rounded=0;orthogonalLoop=1;jettySize=auto;html=1;exitX=0;exitY=0.5;exitDx=0;exitDy=0;entryX=1;entryY=0.5;entryDx=0;entryDy=0;endArrow=none;endFill=0;" edge="1" parent="1" source="s-7C3alnSeoSzACvi8qJ-46" target="kL7tGmFYRtekbOon5jF7-7">
          <mxGeometry relative="1" as="geometry" />
        </mxCell>
        <mxCell id="s-7C3alnSeoSzACvi8qJ-46" value="Contains" style="rhombus;whiteSpace=wrap;html=1;" vertex="1" parent="1">
          <mxGeometry x="-2340" y="970" width="80" height="80" as="geometry" />
        </mxCell>
        <mxCell id="s-7C3alnSeoSzACvi8qJ-50" value="1" style="text;html=1;align=center;verticalAlign=middle;resizable=0;points=[];autosize=1;strokeColor=none;fillColor=none;" vertex="1" parent="1">
          <mxGeometry x="-2190" y="980" width="30" height="30" as="geometry" />
        </mxCell>
        <mxCell id="s-7C3alnSeoSzACvi8qJ-51" value="N" style="text;html=1;align=center;verticalAlign=middle;resizable=0;points=[];autosize=1;strokeColor=none;fillColor=none;" vertex="1" parent="1">
          <mxGeometry x="-2460" y="980" width="30" height="30" as="geometry" />
        </mxCell>
        <mxCell id="s-7C3alnSeoSzACvi8qJ-56" style="rounded=0;orthogonalLoop=1;jettySize=auto;html=1;exitX=1;exitY=0.5;exitDx=0;exitDy=0;entryX=0;entryY=0.5;entryDx=0;entryDy=0;endArrow=none;endFill=0;" edge="1" parent="1" source="s-7C3alnSeoSzACvi8qJ-52" target="kL7tGmFYRtekbOon5jF7-7">
          <mxGeometry relative="1" as="geometry" />
        </mxCell>
        <mxCell id="s-7C3alnSeoSzACvi8qJ-52" value="Quantity" style="ellipse;whiteSpace=wrap;html=1;" vertex="1" parent="1">
          <mxGeometry x="-2840" y="903" width="120" height="30" as="geometry" />
        </mxCell>
        <mxCell id="s-7C3alnSeoSzACvi8qJ-55" style="rounded=0;orthogonalLoop=1;jettySize=auto;html=1;exitX=1;exitY=1;exitDx=0;exitDy=0;entryX=0.25;entryY=0;entryDx=0;entryDy=0;endArrow=none;endFill=0;" edge="1" parent="1" source="s-7C3alnSeoSzACvi8qJ-54" target="kL7tGmFYRtekbOon5jF7-7">
          <mxGeometry relative="1" as="geometry" />
        </mxCell>
        <mxCell id="s-7C3alnSeoSzACvi8qJ-54" value="CartID" style="ellipse;whiteSpace=wrap;html=1;" vertex="1" parent="1">
          <mxGeometry x="-2780" y="820" width="120" height="30" as="geometry" />
        </mxCell>
        <mxCell id="s-7C3alnSeoSzACvi8qJ-58" style="rounded=0;orthogonalLoop=1;jettySize=auto;html=1;exitX=0;exitY=1;exitDx=0;exitDy=0;entryX=1;entryY=0;entryDx=0;entryDy=0;endArrow=none;endFill=0;" edge="1" parent="1" source="s-7C3alnSeoSzACvi8qJ-57" target="kL7tGmFYRtekbOon5jF7-7">
          <mxGeometry relative="1" as="geometry" />
        </mxCell>
        <mxCell id="s-7C3alnSeoSzACvi8qJ-57" value="ProductID" style="ellipse;whiteSpace=wrap;html=1;" vertex="1" parent="1">
          <mxGeometry x="-2540" y="780" width="120" height="30" as="geometry" />
        </mxCell>
        <mxCell id="s-7C3alnSeoSzACvi8qJ-59" value="Role" style="ellipse;whiteSpace=wrap;html=1;" vertex="1" parent="1">
          <mxGeometry x="-2080" y="600" width="120" height="30" as="geometry" />
        </mxCell>
        <mxCell id="s-7C3alnSeoSzACvi8qJ-60" value="&lt;b style=&quot;&quot;&gt;&lt;u&gt;ProductID&lt;/u&gt;&lt;/b&gt;" style="ellipse;whiteSpace=wrap;html=1;" vertex="1" parent="1">
          <mxGeometry x="-2850" y="40" width="120" height="40" as="geometry" />
        </mxCell>
        <mxCell id="s-7C3alnSeoSzACvi8qJ-63" value="ProductName" style="ellipse;whiteSpace=wrap;html=1;" vertex="1" parent="1">
          <mxGeometry x="-2930" y="-10" width="120" height="30" as="geometry" />
        </mxCell>
        <mxCell id="s-7C3alnSeoSzACvi8qJ-71" style="rounded=0;orthogonalLoop=1;jettySize=auto;html=1;exitX=1;exitY=0.5;exitDx=0;exitDy=0;entryX=0;entryY=0.5;entryDx=0;entryDy=0;endArrow=none;endFill=0;" edge="1" parent="1" source="s-7C3alnSeoSzACvi8qJ-65" target="iBV01ZASUmmkMeYfeegj-69">
          <mxGeometry relative="1" as="geometry" />
        </mxCell>
        <mxCell id="s-7C3alnSeoSzACvi8qJ-65" value="Price" style="ellipse;whiteSpace=wrap;html=1;" vertex="1" parent="1">
          <mxGeometry x="-2900" y="-75" width="120" height="30" as="geometry" />
        </mxCell>
        <mxCell id="s-7C3alnSeoSzACvi8qJ-66" value="InventoryID" style="ellipse;whiteSpace=wrap;html=1;" vertex="1" parent="1">
          <mxGeometry x="-2450" y="10" width="120" height="30" as="geometry" />
        </mxCell>
        <mxCell id="s-7C3alnSeoSzACvi8qJ-68" value="CategoryID" style="ellipse;whiteSpace=wrap;html=1;" vertex="1" parent="1">
          <mxGeometry x="-2560" y="-220" width="120" height="30" as="geometry" />
        </mxCell>
        <mxCell id="s-7C3alnSeoSzACvi8qJ-74" style="rounded=0;orthogonalLoop=1;jettySize=auto;html=1;exitX=0.5;exitY=0;exitDx=0;exitDy=0;entryX=0.25;entryY=1;entryDx=0;entryDy=0;endArrow=none;endFill=0;" edge="1" parent="1" source="s-7C3alnSeoSzACvi8qJ-73" target="iBV01ZASUmmkMeYfeegj-69">
          <mxGeometry relative="1" as="geometry" />
        </mxCell>
        <mxCell id="s-7C3alnSeoSzACvi8qJ-75" style="rounded=0;orthogonalLoop=1;jettySize=auto;html=1;exitX=0.5;exitY=1;exitDx=0;exitDy=0;entryX=0.5;entryY=0;entryDx=0;entryDy=0;endArrow=none;endFill=0;" edge="1" parent="1" source="s-7C3alnSeoSzACvi8qJ-73" target="kL7tGmFYRtekbOon5jF7-7">
          <mxGeometry relative="1" as="geometry" />
        </mxCell>
        <mxCell id="s-7C3alnSeoSzACvi8qJ-73" value="has" style="rhombus;whiteSpace=wrap;html=1;" vertex="1" parent="1">
          <mxGeometry x="-2660" y="450" width="80" height="80" as="geometry" />
        </mxCell>
        <mxCell id="s-7C3alnSeoSzACvi8qJ-76" value="1" style="text;html=1;align=center;verticalAlign=middle;resizable=0;points=[];autosize=1;strokeColor=none;fillColor=none;" vertex="1" parent="1">
          <mxGeometry x="-2670" y="240" width="30" height="30" as="geometry" />
        </mxCell>
        <mxCell id="s-7C3alnSeoSzACvi8qJ-78" value="N" style="text;html=1;align=center;verticalAlign=middle;resizable=0;points=[];autosize=1;strokeColor=none;fillColor=none;" vertex="1" parent="1">
          <mxGeometry x="-2670" y="660" width="30" height="30" as="geometry" />
        </mxCell>
        <mxCell id="s-7C3alnSeoSzACvi8qJ-80" value="&lt;b&gt;&lt;u&gt;CategoryID&lt;/u&gt;&lt;/b&gt;" style="ellipse;whiteSpace=wrap;html=1;" vertex="1" parent="1">
          <mxGeometry x="-2720" y="-470" width="120" height="30" as="geometry" />
        </mxCell>
        <mxCell id="s-7C3alnSeoSzACvi8qJ-82" style="rounded=0;orthogonalLoop=1;jettySize=auto;html=1;exitX=1;exitY=0.5;exitDx=0;exitDy=0;entryX=0;entryY=0.5;entryDx=0;entryDy=0;endArrow=none;endFill=0;" edge="1" parent="1" source="s-7C3alnSeoSzACvi8qJ-81" target="iBV01ZASUmmkMeYfeegj-92">
          <mxGeometry relative="1" as="geometry" />
        </mxCell>
        <mxCell id="s-7C3alnSeoSzACvi8qJ-81" value="CategoryName" style="ellipse;whiteSpace=wrap;html=1;" vertex="1" parent="1">
          <mxGeometry x="-3080" y="-315" width="120" height="30" as="geometry" />
        </mxCell>
        <mxCell id="s-7C3alnSeoSzACvi8qJ-86" style="rounded=0;orthogonalLoop=1;jettySize=auto;html=1;exitX=0;exitY=0;exitDx=0;exitDy=0;entryX=1;entryY=1;entryDx=0;entryDy=0;endArrow=none;endFill=0;" edge="1" parent="1" source="s-7C3alnSeoSzACvi8qJ-84" target="iBV01ZASUmmkMeYfeegj-92">
          <mxGeometry relative="1" as="geometry" />
        </mxCell>
        <mxCell id="s-7C3alnSeoSzACvi8qJ-84" value="Belongs to" style="rhombus;whiteSpace=wrap;html=1;" vertex="1" parent="1">
          <mxGeometry x="-2760" y="-230" width="80" height="80" as="geometry" />
        </mxCell>
        <mxCell id="s-7C3alnSeoSzACvi8qJ-87" value="1" style="text;html=1;align=center;verticalAlign=middle;resizable=0;points=[];autosize=1;strokeColor=none;fillColor=none;" vertex="1" parent="1">
          <mxGeometry x="-2750" y="-300" width="30" height="30" as="geometry" />
        </mxCell>
        <mxCell id="s-7C3alnSeoSzACvi8qJ-89" value="N" style="text;html=1;align=center;verticalAlign=middle;resizable=0;points=[];autosize=1;strokeColor=none;fillColor=none;" vertex="1" parent="1">
          <mxGeometry x="-2670" y="-160" width="30" height="30" as="geometry" />
        </mxCell>
        <mxCell id="s-7C3alnSeoSzACvi8qJ-93" style="edgeStyle=none;rounded=0;orthogonalLoop=1;jettySize=auto;html=1;exitX=1;exitY=0.5;exitDx=0;exitDy=0;entryX=0;entryY=0.5;entryDx=0;entryDy=0;endArrow=none;endFill=0;" edge="1" parent="1" source="s-7C3alnSeoSzACvi8qJ-90" target="kL7tGmFYRtekbOon5jF7-8">
          <mxGeometry relative="1" as="geometry" />
        </mxCell>
        <mxCell id="s-7C3alnSeoSzACvi8qJ-90" value="Reviewed in" style="rhombus;whiteSpace=wrap;html=1;" vertex="1" parent="1">
          <mxGeometry x="-2420" y="130" width="80" height="80" as="geometry" />
        </mxCell>
        <mxCell id="s-7C3alnSeoSzACvi8qJ-94" value="1" style="text;html=1;align=center;verticalAlign=middle;resizable=0;points=[];autosize=1;strokeColor=none;fillColor=none;" vertex="1" parent="1">
          <mxGeometry x="-2460" y="70" width="30" height="30" as="geometry" />
        </mxCell>
        <mxCell id="s-7C3alnSeoSzACvi8qJ-95" value="N" style="text;html=1;align=center;verticalAlign=middle;resizable=0;points=[];autosize=1;strokeColor=none;fillColor=none;" vertex="1" parent="1">
          <mxGeometry x="-2250" y="160" width="30" height="30" as="geometry" />
        </mxCell>
        <mxCell id="s-7C3alnSeoSzACvi8qJ-97" style="edgeStyle=none;rounded=0;orthogonalLoop=1;jettySize=auto;html=1;exitX=0.5;exitY=1;exitDx=0;exitDy=0;entryX=0.5;entryY=0;entryDx=0;entryDy=0;endArrow=none;endFill=0;" edge="1" parent="1" source="s-7C3alnSeoSzACvi8qJ-96" target="kL7tGmFYRtekbOon5jF7-8">
          <mxGeometry relative="1" as="geometry" />
        </mxCell>
        <mxCell id="s-7C3alnSeoSzACvi8qJ-96" value="&lt;b style=&quot;&quot;&gt;&lt;u&gt;ReviewID&lt;/u&gt;&lt;/b&gt;" style="ellipse;whiteSpace=wrap;html=1;" vertex="1" parent="1">
          <mxGeometry x="-2125" y="100" width="120" height="40" as="geometry" />
        </mxCell>
        <mxCell id="s-7C3alnSeoSzACvi8qJ-99" style="edgeStyle=none;rounded=0;orthogonalLoop=1;jettySize=auto;html=1;exitX=0;exitY=0.5;exitDx=0;exitDy=0;entryX=1;entryY=0.5;entryDx=0;entryDy=0;endArrow=none;endFill=0;" edge="1" parent="1" source="s-7C3alnSeoSzACvi8qJ-98" target="kL7tGmFYRtekbOon5jF7-8">
          <mxGeometry relative="1" as="geometry" />
        </mxCell>
        <mxCell id="s-7C3alnSeoSzACvi8qJ-98" value="Rating" style="ellipse;whiteSpace=wrap;html=1;" vertex="1" parent="1">
          <mxGeometry x="-1960" y="180" width="120" height="30" as="geometry" />
        </mxCell>
        <mxCell id="s-7C3alnSeoSzACvi8qJ-101" style="edgeStyle=none;rounded=0;orthogonalLoop=1;jettySize=auto;html=1;exitX=1;exitY=0;exitDx=0;exitDy=0;entryX=0;entryY=1;entryDx=0;entryDy=0;endArrow=none;endFill=0;" edge="1" parent="1" source="s-7C3alnSeoSzACvi8qJ-100" target="kL7tGmFYRtekbOon5jF7-8">
          <mxGeometry relative="1" as="geometry" />
        </mxCell>
        <mxCell id="s-7C3alnSeoSzACvi8qJ-100" value="Comment" style="ellipse;whiteSpace=wrap;html=1;" vertex="1" parent="1">
          <mxGeometry x="-2260" y="290" width="120" height="30" as="geometry" />
        </mxCell>
        <mxCell id="s-7C3alnSeoSzACvi8qJ-105" style="edgeStyle=none;rounded=0;orthogonalLoop=1;jettySize=auto;html=1;exitX=1;exitY=1;exitDx=0;exitDy=0;entryX=0;entryY=0;entryDx=0;entryDy=0;endArrow=none;endFill=0;" edge="1" parent="1" source="s-7C3alnSeoSzACvi8qJ-103" target="kL7tGmFYRtekbOon5jF7-8">
          <mxGeometry relative="1" as="geometry" />
        </mxCell>
        <mxCell id="s-7C3alnSeoSzACvi8qJ-103" value="UserID" style="ellipse;whiteSpace=wrap;html=1;" vertex="1" parent="1">
          <mxGeometry x="-2245" y="130" width="120" height="30" as="geometry" />
        </mxCell>
        <mxCell id="s-7C3alnSeoSzACvi8qJ-107" style="edgeStyle=none;rounded=0;orthogonalLoop=1;jettySize=auto;html=1;exitX=0;exitY=0.5;exitDx=0;exitDy=0;entryX=1;entryY=1;entryDx=0;entryDy=0;endArrow=none;endFill=0;" edge="1" parent="1" source="s-7C3alnSeoSzACvi8qJ-104" target="kL7tGmFYRtekbOon5jF7-8">
          <mxGeometry relative="1" as="geometry" />
        </mxCell>
        <mxCell id="s-7C3alnSeoSzACvi8qJ-104" value="ProductID" style="ellipse;whiteSpace=wrap;html=1;" vertex="1" parent="1">
          <mxGeometry x="-1970" y="245" width="120" height="40" as="geometry" />
        </mxCell>
        <mxCell id="s-7C3alnSeoSzACvi8qJ-110" value="" style="rounded=0;orthogonalLoop=1;jettySize=auto;html=1;exitX=0;exitY=0.25;exitDx=0;exitDy=0;entryX=0.5;entryY=1;entryDx=0;entryDy=0;endArrow=none;endFill=0;" edge="1" parent="1" source="iBV01ZASUmmkMeYfeegj-1" target="s-7C3alnSeoSzACvi8qJ-109">
          <mxGeometry relative="1" as="geometry">
            <mxPoint x="-1780" y="483" as="sourcePoint" />
            <mxPoint x="-2060" y="470" as="targetPoint" />
          </mxGeometry>
        </mxCell>
        <mxCell id="s-7C3alnSeoSzACvi8qJ-109" value="Writes" style="rhombus;whiteSpace=wrap;html=1;" vertex="1" parent="1">
          <mxGeometry x="-2105" y="360" width="80" height="80" as="geometry" />
        </mxCell>
        <mxCell id="s-7C3alnSeoSzACvi8qJ-112" value="1" style="text;html=1;align=center;verticalAlign=middle;resizable=0;points=[];autosize=1;strokeColor=none;fillColor=none;" vertex="1" parent="1">
          <mxGeometry x="-1950" y="460" width="30" height="30" as="geometry" />
        </mxCell>
        <mxCell id="s-7C3alnSeoSzACvi8qJ-113" value="N" style="text;html=1;align=center;verticalAlign=middle;resizable=0;points=[];autosize=1;strokeColor=none;fillColor=none;" vertex="1" parent="1">
          <mxGeometry x="-2070" y="315" width="30" height="30" as="geometry" />
        </mxCell>
        <mxCell id="s-7C3alnSeoSzACvi8qJ-114" value="&lt;b style=&quot;&quot;&gt;&lt;u&gt;OrderID&lt;/u&gt;&lt;/b&gt;" style="ellipse;whiteSpace=wrap;html=1;" vertex="1" parent="1">
          <mxGeometry x="-1510" y="-440" width="120" height="40" as="geometry" />
        </mxCell>
        <mxCell id="s-7C3alnSeoSzACvi8qJ-121" style="edgeStyle=none;rounded=0;orthogonalLoop=1;jettySize=auto;html=1;exitX=0;exitY=0;exitDx=0;exitDy=0;entryX=0.75;entryY=1;entryDx=0;entryDy=0;endArrow=none;endFill=0;" edge="1" parent="1" source="s-7C3alnSeoSzACvi8qJ-115" target="iBV01ZASUmmkMeYfeegj-22">
          <mxGeometry relative="1" as="geometry" />
        </mxCell>
        <mxCell id="s-7C3alnSeoSzACvi8qJ-115" value="OrderDate" style="ellipse;whiteSpace=wrap;html=1;" vertex="1" parent="1">
          <mxGeometry x="-1540" y="-205" width="120" height="30" as="geometry" />
        </mxCell>
        <mxCell id="s-7C3alnSeoSzACvi8qJ-119" style="edgeStyle=none;rounded=0;orthogonalLoop=1;jettySize=auto;html=1;exitX=0.5;exitY=0;exitDx=0;exitDy=0;entryX=0;entryY=1;entryDx=0;entryDy=0;endArrow=none;endFill=0;" edge="1" parent="1" source="s-7C3alnSeoSzACvi8qJ-116" target="iBV01ZASUmmkMeYfeegj-22">
          <mxGeometry relative="1" as="geometry" />
        </mxCell>
        <mxCell id="s-7C3alnSeoSzACvi8qJ-116" value="TotalAmount" style="ellipse;whiteSpace=wrap;html=1;" vertex="1" parent="1">
          <mxGeometry x="-1800" y="-220" width="120" height="30" as="geometry" />
        </mxCell>
        <mxCell id="s-7C3alnSeoSzACvi8qJ-118" style="edgeStyle=none;rounded=0;orthogonalLoop=1;jettySize=auto;html=1;exitX=1;exitY=1;exitDx=0;exitDy=0;entryX=0;entryY=0;entryDx=0;entryDy=0;endArrow=none;endFill=0;" edge="1" parent="1" source="s-7C3alnSeoSzACvi8qJ-117" target="iBV01ZASUmmkMeYfeegj-22">
          <mxGeometry relative="1" as="geometry" />
        </mxCell>
        <mxCell id="s-7C3alnSeoSzACvi8qJ-117" value="UserID" style="ellipse;whiteSpace=wrap;html=1;" vertex="1" parent="1">
          <mxGeometry x="-1820" y="-420" width="120" height="40" as="geometry" />
        </mxCell>
        <mxCell id="s-7C3alnSeoSzACvi8qJ-124" value="" style="edgeStyle=orthogonalEdgeStyle;rounded=0;orthogonalLoop=1;jettySize=auto;html=1;exitX=0.5;exitY=0;exitDx=0;exitDy=0;entryX=0;entryY=0.5;entryDx=0;entryDy=0;endArrow=none;endFill=0;" edge="1" parent="1" source="iBV01ZASUmmkMeYfeegj-69" target="s-7C3alnSeoSzACvi8qJ-123">
          <mxGeometry relative="1" as="geometry">
            <mxPoint x="-2590" y="-90" as="sourcePoint" />
            <mxPoint x="-2225" y="-320" as="targetPoint" />
          </mxGeometry>
        </mxCell>
        <mxCell id="s-7C3alnSeoSzACvi8qJ-123" value="has" style="rhombus;whiteSpace=wrap;html=1;" vertex="1" parent="1">
          <mxGeometry x="-2485" y="-360" width="80" height="80" as="geometry" />
        </mxCell>
        <mxCell id="s-7C3alnSeoSzACvi8qJ-126" value="&lt;b style=&quot;&quot;&gt;&lt;u&gt;OrderItemID&lt;/u&gt;&lt;/b&gt;" style="ellipse;whiteSpace=wrap;html=1;" vertex="1" parent="1">
          <mxGeometry x="-2440" y="-435" width="120" height="40" as="geometry" />
        </mxCell>
        <mxCell id="s-7C3alnSeoSzACvi8qJ-127" value="Price" style="ellipse;whiteSpace=wrap;html=1;" vertex="1" parent="1">
          <mxGeometry x="-2280" y="-450" width="120" height="40" as="geometry" />
        </mxCell>
        <mxCell id="s-7C3alnSeoSzACvi8qJ-128" value="OrderID" style="ellipse;whiteSpace=wrap;html=1;" vertex="1" parent="1">
          <mxGeometry x="-2110" y="-435" width="120" height="40" as="geometry" />
        </mxCell>
        <mxCell id="s-7C3alnSeoSzACvi8qJ-129" value="Quantity" style="ellipse;whiteSpace=wrap;html=1;" vertex="1" parent="1">
          <mxGeometry x="-2145" y="-270" width="120" height="40" as="geometry" />
        </mxCell>
        <mxCell id="s-7C3alnSeoSzACvi8qJ-135" style="edgeStyle=none;rounded=0;orthogonalLoop=1;jettySize=auto;html=1;exitX=1;exitY=0;exitDx=0;exitDy=0;entryX=0;entryY=1;entryDx=0;entryDy=0;endArrow=none;endFill=0;" edge="1" parent="1" source="s-7C3alnSeoSzACvi8qJ-130" target="kL7tGmFYRtekbOon5jF7-6">
          <mxGeometry relative="1" as="geometry" />
        </mxCell>
        <mxCell id="s-7C3alnSeoSzACvi8qJ-130" value="ProductID" style="ellipse;whiteSpace=wrap;html=1;" vertex="1" parent="1">
          <mxGeometry x="-2430" y="-250" width="120" height="40" as="geometry" />
        </mxCell>
        <mxCell id="s-7C3alnSeoSzACvi8qJ-141" style="rounded=0;orthogonalLoop=1;jettySize=auto;html=1;exitX=1;exitY=1;exitDx=0;exitDy=0;entryX=0;entryY=0;entryDx=0;entryDy=0;endArrow=none;endFill=0;" edge="1" parent="1" source="s-7C3alnSeoSzACvi8qJ-136" target="iBV01ZASUmmkMeYfeegj-36">
          <mxGeometry relative="1" as="geometry" />
        </mxCell>
        <mxCell id="s-7C3alnSeoSzACvi8qJ-136" value="&lt;b style=&quot;&quot;&gt;&lt;u&gt;ShipmentID&lt;/u&gt;&lt;/b&gt;" style="ellipse;whiteSpace=wrap;html=1;" vertex="1" parent="1">
          <mxGeometry x="-1910" y="-790" width="120" height="40" as="geometry" />
        </mxCell>
        <mxCell id="s-7C3alnSeoSzACvi8qJ-142" style="rounded=0;orthogonalLoop=1;jettySize=auto;html=1;exitX=1;exitY=0;exitDx=0;exitDy=0;entryX=0;entryY=1;entryDx=0;entryDy=0;endArrow=none;endFill=0;" edge="1" parent="1" source="s-7C3alnSeoSzACvi8qJ-138" target="iBV01ZASUmmkMeYfeegj-36">
          <mxGeometry relative="1" as="geometry" />
        </mxCell>
        <mxCell id="s-7C3alnSeoSzACvi8qJ-138" value="TrackingNumber" style="ellipse;whiteSpace=wrap;html=1;" vertex="1" parent="1">
          <mxGeometry x="-1930" y="-640" width="120" height="40" as="geometry" />
        </mxCell>
        <mxCell id="s-7C3alnSeoSzACvi8qJ-139" value="ShipmentDate" style="ellipse;whiteSpace=wrap;html=1;" vertex="1" parent="1">
          <mxGeometry x="-1490" y="-840" width="120" height="40" as="geometry" />
        </mxCell>
        <mxCell id="s-7C3alnSeoSzACvi8qJ-140" value="OrderID" style="ellipse;whiteSpace=wrap;html=1;" vertex="1" parent="1">
          <mxGeometry x="-1395" y="-640" width="120" height="40" as="geometry" />
        </mxCell>
        <mxCell id="s-7C3alnSeoSzACvi8qJ-148" style="edgeStyle=none;rounded=0;orthogonalLoop=1;jettySize=auto;html=1;exitX=1;exitY=0.5;exitDx=0;exitDy=0;entryX=0;entryY=0.5;entryDx=0;entryDy=0;endArrow=none;endFill=0;" edge="1" parent="1" source="s-7C3alnSeoSzACvi8qJ-145" target="iBV01ZASUmmkMeYfeegj-22">
          <mxGeometry relative="1" as="geometry" />
        </mxCell>
        <mxCell id="s-7C3alnSeoSzACvi8qJ-145" value="Contains" style="rhombus;whiteSpace=wrap;html=1;" vertex="1" parent="1">
          <mxGeometry x="-1930" y="-360" width="80" height="80" as="geometry" />
        </mxCell>
        <mxCell id="s-7C3alnSeoSzACvi8qJ-151" value="1" style="text;html=1;align=center;verticalAlign=middle;resizable=0;points=[];autosize=1;strokeColor=none;fillColor=none;" vertex="1" parent="1">
          <mxGeometry x="-2385" y="-350" width="30" height="30" as="geometry" />
        </mxCell>
        <mxCell id="s-7C3alnSeoSzACvi8qJ-152" value="1" style="text;html=1;align=center;verticalAlign=middle;resizable=0;points=[];autosize=1;strokeColor=none;fillColor=none;" vertex="1" parent="1">
          <mxGeometry x="-2635" y="-280" width="30" height="30" as="geometry" />
        </mxCell>
        <mxCell id="s-7C3alnSeoSzACvi8qJ-153" value="1" style="text;html=1;align=center;verticalAlign=middle;resizable=0;points=[];autosize=1;strokeColor=none;fillColor=none;" vertex="1" parent="1">
          <mxGeometry x="-1800" y="-360" width="30" height="30" as="geometry" />
        </mxCell>
        <mxCell id="s-7C3alnSeoSzACvi8qJ-154" value="N" style="text;html=1;align=center;verticalAlign=middle;resizable=0;points=[];autosize=1;strokeColor=none;fillColor=none;" vertex="1" parent="1">
          <mxGeometry x="-2035" y="-310" width="30" height="30" as="geometry" />
        </mxCell>
        <mxCell id="s-7C3alnSeoSzACvi8qJ-160" style="edgeStyle=none;rounded=0;orthogonalLoop=1;jettySize=auto;html=1;exitX=0.5;exitY=1;exitDx=0;exitDy=0;entryX=0.75;entryY=0;entryDx=0;entryDy=0;endArrow=none;endFill=0;" edge="1" parent="1" source="s-7C3alnSeoSzACvi8qJ-155" target="iBV01ZASUmmkMeYfeegj-51">
          <mxGeometry relative="1" as="geometry" />
        </mxCell>
        <mxCell id="s-7C3alnSeoSzACvi8qJ-155" value="&lt;b style=&quot;&quot;&gt;&lt;u&gt;PaymentID&lt;/u&gt;&lt;/b&gt;" style="ellipse;whiteSpace=wrap;html=1;" vertex="1" parent="1">
          <mxGeometry x="-1110" y="-435" width="120" height="40" as="geometry" />
        </mxCell>
        <mxCell id="s-7C3alnSeoSzACvi8qJ-161" style="edgeStyle=none;rounded=0;orthogonalLoop=1;jettySize=auto;html=1;exitX=0;exitY=0.5;exitDx=0;exitDy=0;entryX=1;entryY=0.5;entryDx=0;entryDy=0;endArrow=none;endFill=0;" edge="1" parent="1" source="s-7C3alnSeoSzACvi8qJ-156" target="iBV01ZASUmmkMeYfeegj-51">
          <mxGeometry relative="1" as="geometry" />
        </mxCell>
        <mxCell id="s-7C3alnSeoSzACvi8qJ-156" value="OrderID" style="ellipse;whiteSpace=wrap;html=1;" vertex="1" parent="1">
          <mxGeometry x="-980" y="-310" width="120" height="30" as="geometry" />
        </mxCell>
        <mxCell id="s-7C3alnSeoSzACvi8qJ-162" style="edgeStyle=none;rounded=0;orthogonalLoop=1;jettySize=auto;html=1;exitX=1;exitY=0.5;exitDx=0;exitDy=0;entryX=0;entryY=1;entryDx=0;entryDy=0;endArrow=none;endFill=0;" edge="1" parent="1" source="s-7C3alnSeoSzACvi8qJ-157" target="iBV01ZASUmmkMeYfeegj-51">
          <mxGeometry relative="1" as="geometry" />
        </mxCell>
        <mxCell id="s-7C3alnSeoSzACvi8qJ-157" value="PaymentDate" style="ellipse;whiteSpace=wrap;html=1;" vertex="1" parent="1">
          <mxGeometry x="-1320" y="-250" width="120" height="30" as="geometry" />
        </mxCell>
        <mxCell id="s-7C3alnSeoSzACvi8qJ-159" style="edgeStyle=none;rounded=0;orthogonalLoop=1;jettySize=auto;html=1;exitX=1;exitY=0.5;exitDx=0;exitDy=0;entryX=0;entryY=0;entryDx=0;entryDy=0;endArrow=none;endFill=0;" edge="1" parent="1" source="s-7C3alnSeoSzACvi8qJ-158" target="iBV01ZASUmmkMeYfeegj-51">
          <mxGeometry relative="1" as="geometry" />
        </mxCell>
        <mxCell id="s-7C3alnSeoSzACvi8qJ-158" value="Amount" style="ellipse;whiteSpace=wrap;html=1;" vertex="1" parent="1">
          <mxGeometry x="-1300" y="-435" width="120" height="30" as="geometry" />
        </mxCell>
        <mxCell id="s-7C3alnSeoSzACvi8qJ-167" style="edgeStyle=none;rounded=0;orthogonalLoop=1;jettySize=auto;html=1;exitX=1;exitY=0.5;exitDx=0;exitDy=0;endArrow=none;endFill=0;" edge="1" parent="1" source="s-7C3alnSeoSzACvi8qJ-164" target="iBV01ZASUmmkMeYfeegj-51">
          <mxGeometry relative="1" as="geometry" />
        </mxCell>
        <mxCell id="s-7C3alnSeoSzACvi8qJ-164" value="Paid by" style="rhombus;whiteSpace=wrap;html=1;" vertex="1" parent="1">
          <mxGeometry x="-1395" y="-360" width="80" height="80" as="geometry" />
        </mxCell>
        <mxCell id="s-7C3alnSeoSzACvi8qJ-169" value="1" style="text;html=1;align=center;verticalAlign=middle;resizable=0;points=[];autosize=1;strokeColor=none;fillColor=none;" vertex="1" parent="1">
          <mxGeometry x="-1470" y="-360" width="30" height="30" as="geometry" />
        </mxCell>
        <mxCell id="s-7C3alnSeoSzACvi8qJ-170" value="1" style="text;html=1;align=center;verticalAlign=middle;resizable=0;points=[];autosize=1;strokeColor=none;fillColor=none;" vertex="1" parent="1">
          <mxGeometry x="-1260" y="-350" width="30" height="30" as="geometry" />
        </mxCell>
        <mxCell id="s-7C3alnSeoSzACvi8qJ-171" value="&lt;u&gt;&lt;b&gt;WishlistID&lt;/b&gt;&lt;/u&gt;" style="ellipse;whiteSpace=wrap;html=1;" vertex="1" parent="1">
          <mxGeometry x="-1010" y="-40" width="120" height="30" as="geometry" />
        </mxCell>
        <mxCell id="s-7C3alnSeoSzACvi8qJ-172" value="UserID" style="ellipse;whiteSpace=wrap;html=1;" vertex="1" parent="1">
          <mxGeometry x="-1230" y="-105" width="120" height="30" as="geometry" />
        </mxCell>
        <mxCell id="s-7C3alnSeoSzACvi8qJ-174" style="edgeStyle=none;rounded=0;orthogonalLoop=1;jettySize=auto;html=1;exitX=1;exitY=0.5;exitDx=0;exitDy=0;entryX=0.433;entryY=1.008;entryDx=0;entryDy=0;entryPerimeter=0;endArrow=none;endFill=0;" edge="1" parent="1" source="kL7tGmFYRtekbOon5jF7-1" target="s-7C3alnSeoSzACvi8qJ-171">
          <mxGeometry relative="1" as="geometry" />
        </mxCell>
        <mxCell id="s-7C3alnSeoSzACvi8qJ-175" value="WishlistID" style="ellipse;whiteSpace=wrap;html=1;" vertex="1" parent="1">
          <mxGeometry x="-1985" y="-140" width="120" height="30" as="geometry" />
        </mxCell>
        <mxCell id="s-7C3alnSeoSzACvi8qJ-176" value="UserID" style="ellipse;whiteSpace=wrap;html=1;" vertex="1" parent="1">
          <mxGeometry x="-1760" y="-140" width="120" height="30" as="geometry" />
        </mxCell>
        <mxCell id="s-7C3alnSeoSzACvi8qJ-178" value="&lt;b&gt;&lt;u&gt;WishListItemID&lt;/u&gt;&lt;/b&gt;" style="ellipse;whiteSpace=wrap;html=1;" vertex="1" parent="1">
          <mxGeometry x="-1970" y="60" width="120" height="40" as="geometry" />
        </mxCell>
        <mxCell id="s-7C3alnSeoSzACvi8qJ-183" value="" style="rounded=0;orthogonalLoop=1;jettySize=auto;html=1;exitX=1;exitY=0.5;exitDx=0;exitDy=0;entryX=0;entryY=0.5;entryDx=0;entryDy=0;endArrow=none;endFill=0;" edge="1" parent="1" source="iBV01ZASUmmkMeYfeegj-69" target="s-7C3alnSeoSzACvi8qJ-182">
          <mxGeometry relative="1" as="geometry">
            <mxPoint x="-2530" y="-60" as="sourcePoint" />
            <mxPoint x="-1880" y="-30" as="targetPoint" />
          </mxGeometry>
        </mxCell>
        <mxCell id="s-7C3alnSeoSzACvi8qJ-182" value="Included in" style="rhombus;whiteSpace=wrap;html=1;" vertex="1" parent="1">
          <mxGeometry x="-2240" y="-90" width="80" height="80" as="geometry" />
        </mxCell>
        <mxCell id="s-7C3alnSeoSzACvi8qJ-185" value="" style="rounded=0;orthogonalLoop=1;jettySize=auto;html=1;exitX=0;exitY=0.5;exitDx=0;exitDy=0;entryX=0.75;entryY=1;entryDx=0;entryDy=0;endArrow=none;endFill=0;" edge="1" parent="1" source="kL7tGmFYRtekbOon5jF7-1" target="s-7C3alnSeoSzACvi8qJ-184">
          <mxGeometry relative="1" as="geometry">
            <mxPoint x="-1335" y="275" as="sourcePoint" />
            <mxPoint x="-1790" as="targetPoint" />
          </mxGeometry>
        </mxCell>
        <mxCell id="s-7C3alnSeoSzACvi8qJ-184" value="contains" style="rhombus;whiteSpace=wrap;html=1;" vertex="1" parent="1">
          <mxGeometry x="-1620" y="90" width="80" height="80" as="geometry" />
        </mxCell>
        <mxCell id="s-7C3alnSeoSzACvi8qJ-188" value="" style="edgeStyle=orthogonalEdgeStyle;rounded=0;orthogonalLoop=1;jettySize=auto;html=1;exitX=1;exitY=0.5;exitDx=0;exitDy=0;endArrow=none;endFill=0;" edge="1" parent="1" source="iBV01ZASUmmkMeYfeegj-1" target="s-7C3alnSeoSzACvi8qJ-187">
          <mxGeometry relative="1" as="geometry">
            <mxPoint x="-1660" y="495" as="sourcePoint" />
            <mxPoint x="-1120" y="770" as="targetPoint" />
          </mxGeometry>
        </mxCell>
        <mxCell id="s-7C3alnSeoSzACvi8qJ-187" value="has" style="rhombus;whiteSpace=wrap;html=1;" vertex="1" parent="1">
          <mxGeometry x="-1200" y="455" width="80" height="80" as="geometry" />
        </mxCell>
        <mxCell id="s-7C3alnSeoSzACvi8qJ-189" value="" style="rounded=0;orthogonalLoop=1;jettySize=auto;html=1;exitX=0.878;exitY=1.026;exitDx=0;exitDy=0;entryX=0.5;entryY=0;entryDx=0;entryDy=0;endArrow=none;endFill=0;exitPerimeter=0;" edge="1" parent="1" source="iBV01ZASUmmkMeYfeegj-1" target="s-7C3alnSeoSzACvi8qJ-186">
          <mxGeometry relative="1" as="geometry">
            <mxPoint x="-1660" y="520" as="sourcePoint" />
            <mxPoint x="-1370" y="1005" as="targetPoint" />
          </mxGeometry>
        </mxCell>
        <mxCell id="s-7C3alnSeoSzACvi8qJ-186" value="Recieves" style="rhombus;whiteSpace=wrap;html=1;" vertex="1" parent="1">
          <mxGeometry x="-1510" y="755" width="80" height="80" as="geometry" />
        </mxCell>
        <mxCell id="s-7C3alnSeoSzACvi8qJ-191" value="" style="rounded=0;orthogonalLoop=1;jettySize=auto;html=1;exitX=1;exitY=0;exitDx=0;exitDy=0;entryX=0;entryY=1;entryDx=0;entryDy=0;endArrow=none;endFill=0;" edge="1" parent="1" source="iBV01ZASUmmkMeYfeegj-1" target="s-7C3alnSeoSzACvi8qJ-190">
          <mxGeometry relative="1" as="geometry">
            <mxPoint x="-1660" y="470" as="sourcePoint" />
            <mxPoint x="-1120" y="110" as="targetPoint" />
          </mxGeometry>
        </mxCell>
        <mxCell id="s-7C3alnSeoSzACvi8qJ-190" value="owns" style="rhombus;whiteSpace=wrap;html=1;" vertex="1" parent="1">
          <mxGeometry x="-1370" y="265" width="80" height="80" as="geometry" />
        </mxCell>
        <mxCell id="s-7C3alnSeoSzACvi8qJ-192" value="City" style="ellipse;whiteSpace=wrap;html=1;" vertex="1" parent="1">
          <mxGeometry x="-970" y="705" width="120" height="30" as="geometry" />
        </mxCell>
        <mxCell id="s-7C3alnSeoSzACvi8qJ-193" value="State" style="ellipse;whiteSpace=wrap;html=1;" vertex="1" parent="1">
          <mxGeometry x="-1080" y="845" width="120" height="30" as="geometry" />
        </mxCell>
        <mxCell id="s-7C3alnSeoSzACvi8qJ-194" value="ZipCode" style="ellipse;whiteSpace=wrap;html=1;" vertex="1" parent="1">
          <mxGeometry x="-1270" y="858" width="120" height="30" as="geometry" />
        </mxCell>
        <mxCell id="s-7C3alnSeoSzACvi8qJ-195" value="Street" style="ellipse;whiteSpace=wrap;html=1;" vertex="1" parent="1">
          <mxGeometry x="-1050" y="600" width="120" height="30" as="geometry" />
        </mxCell>
        <mxCell id="s-7C3alnSeoSzACvi8qJ-196" value="UserID" style="ellipse;whiteSpace=wrap;html=1;" vertex="1" parent="1">
          <mxGeometry x="-1305" y="745" width="120" height="30" as="geometry" />
        </mxCell>
        <mxCell id="s-7C3alnSeoSzACvi8qJ-199" style="edgeStyle=none;rounded=0;orthogonalLoop=1;jettySize=auto;html=1;exitX=1;exitY=1;exitDx=0;exitDy=0;entryX=0;entryY=0;entryDx=0;entryDy=0;endArrow=none;endFill=0;" edge="1" parent="1" source="s-7C3alnSeoSzACvi8qJ-197" target="kL7tGmFYRtekbOon5jF7-4">
          <mxGeometry relative="1" as="geometry" />
        </mxCell>
        <mxCell id="s-7C3alnSeoSzACvi8qJ-197" value="&lt;b&gt;&lt;u&gt;AddressID&lt;/u&gt;&lt;/b&gt;" style="ellipse;whiteSpace=wrap;html=1;" vertex="1" parent="1">
          <mxGeometry x="-1260" y="660" width="120" height="30" as="geometry" />
        </mxCell>
        <mxCell id="s-7C3alnSeoSzACvi8qJ-205" value="&lt;u&gt;&lt;b&gt;NotificationID&lt;/b&gt;&lt;/u&gt;" style="ellipse;whiteSpace=wrap;html=1;" vertex="1" parent="1">
          <mxGeometry x="-1250" y="1055" width="120" height="30" as="geometry" />
        </mxCell>
        <mxCell id="s-7C3alnSeoSzACvi8qJ-206" value="UserID" style="ellipse;whiteSpace=wrap;html=1;" vertex="1" parent="1">
          <mxGeometry x="-1420" y="1120" width="120" height="30" as="geometry" />
        </mxCell>
        <mxCell id="s-7C3alnSeoSzACvi8qJ-207" value="message" style="ellipse;whiteSpace=wrap;html=1;" vertex="1" parent="1">
          <mxGeometry x="-1580" y="1080" width="120" height="30" as="geometry" />
        </mxCell>
        <mxCell id="s-7C3alnSeoSzACvi8qJ-208" value="Date" style="ellipse;whiteSpace=wrap;html=1;" vertex="1" parent="1">
          <mxGeometry x="-1560" y="955" width="120" height="30" as="geometry" />
        </mxCell>
        <mxCell id="s-7C3alnSeoSzACvi8qJ-213" value="1" style="text;html=1;align=center;verticalAlign=middle;resizable=0;points=[];autosize=1;strokeColor=none;fillColor=none;" vertex="1" parent="1">
          <mxGeometry x="-2320" y="-90" width="30" height="30" as="geometry" />
        </mxCell>
        <mxCell id="s-7C3alnSeoSzACvi8qJ-214" value="N" style="text;html=1;align=center;verticalAlign=middle;resizable=0;points=[];autosize=1;strokeColor=none;fillColor=none;" vertex="1" parent="1">
          <mxGeometry x="-2050" y="-80" width="30" height="30" as="geometry" />
        </mxCell>
        <mxCell id="s-7C3alnSeoSzACvi8qJ-215" value="1" style="text;html=1;align=center;verticalAlign=middle;resizable=0;points=[];autosize=1;strokeColor=none;fillColor=none;" vertex="1" parent="1">
          <mxGeometry x="-1350" y="60" width="30" height="30" as="geometry" />
        </mxCell>
        <mxCell id="s-7C3alnSeoSzACvi8qJ-216" value="N" style="text;html=1;align=center;verticalAlign=middle;resizable=0;points=[];autosize=1;strokeColor=none;fillColor=none;" vertex="1" parent="1">
          <mxGeometry x="-1720" y="30" width="30" height="30" as="geometry" />
        </mxCell>
        <mxCell id="s-7C3alnSeoSzACvi8qJ-218" value="1" style="text;html=1;align=center;verticalAlign=middle;resizable=0;points=[];autosize=1;strokeColor=none;fillColor=none;" vertex="1" parent="1">
          <mxGeometry x="-1200" y="200" width="30" height="30" as="geometry" />
        </mxCell>
        <mxCell id="s-7C3alnSeoSzACvi8qJ-219" value="1" style="text;html=1;align=center;verticalAlign=middle;resizable=0;points=[];autosize=1;strokeColor=none;fillColor=none;" vertex="1" parent="1">
          <mxGeometry x="-1420" y="360" width="30" height="30" as="geometry" />
        </mxCell>
        <mxCell id="s-7C3alnSeoSzACvi8qJ-220" value="1" style="text;html=1;align=center;verticalAlign=middle;resizable=0;points=[];autosize=1;strokeColor=none;fillColor=none;" vertex="1" parent="1">
          <mxGeometry x="-1280" y="440" width="30" height="30" as="geometry" />
        </mxCell>
        <mxCell id="s-7C3alnSeoSzACvi8qJ-221" value="N" style="text;html=1;align=center;verticalAlign=middle;resizable=0;points=[];autosize=1;strokeColor=none;fillColor=none;" vertex="1" parent="1">
          <mxGeometry x="-1065" y="520" width="30" height="30" as="geometry" />
        </mxCell>
        <mxCell id="s-7C3alnSeoSzACvi8qJ-223" value="1" style="text;html=1;align=center;verticalAlign=middle;resizable=0;points=[];autosize=1;strokeColor=none;fillColor=none;" vertex="1" parent="1">
          <mxGeometry x="-1495" y="680" width="30" height="30" as="geometry" />
        </mxCell>
        <mxCell id="s-7C3alnSeoSzACvi8qJ-224" value="N" style="text;html=1;align=center;verticalAlign=middle;resizable=0;points=[];autosize=1;strokeColor=none;fillColor=none;" vertex="1" parent="1">
          <mxGeometry x="-1395" y="875" width="30" height="30" as="geometry" />
        </mxCell>
        <mxCell id="634n50XaCfVM70tC2YM0-2" value="" style="rounded=0;orthogonalLoop=1;jettySize=auto;html=1;exitX=0.5;exitY=0;exitDx=0;exitDy=0;entryX=0.5;entryY=1;entryDx=0;entryDy=0;endArrow=none;endFill=0;" edge="1" parent="1" source="iBV01ZASUmmkMeYfeegj-1" target="634n50XaCfVM70tC2YM0-1">
          <mxGeometry relative="1" as="geometry">
            <mxPoint x="-1720" y="470" as="sourcePoint" />
            <mxPoint x="-1610" y="-290" as="targetPoint" />
          </mxGeometry>
        </mxCell>
        <mxCell id="634n50XaCfVM70tC2YM0-1" value="Places" style="rhombus;whiteSpace=wrap;html=1;" vertex="1" parent="1">
          <mxGeometry x="-1690" y="-30" width="80" height="80" as="geometry" />
        </mxCell>
        <mxCell id="634n50XaCfVM70tC2YM0-3" value="1" style="text;html=1;align=center;verticalAlign=middle;resizable=0;points=[];autosize=1;strokeColor=none;fillColor=none;" vertex="1" parent="1">
          <mxGeometry x="-1670" y="215" width="30" height="30" as="geometry" />
        </mxCell>
        <mxCell id="634n50XaCfVM70tC2YM0-4" value="N" style="text;html=1;align=center;verticalAlign=middle;resizable=0;points=[];autosize=1;strokeColor=none;fillColor=none;" vertex="1" parent="1">
          <mxGeometry x="-1620" y="-210" width="30" height="30" as="geometry" />
        </mxCell>
        <mxCell id="634n50XaCfVM70tC2YM0-5" value="Shipped by" style="rhombus;whiteSpace=wrap;html=1;" vertex="1" parent="1">
          <mxGeometry x="-1650" y="-570" width="80" height="80" as="geometry" />
        </mxCell>
        <mxCell id="634n50XaCfVM70tC2YM0-8" style="rounded=0;orthogonalLoop=1;jettySize=auto;html=1;exitX=1;exitY=0.5;exitDx=0;exitDy=0;entryX=0;entryY=0;entryDx=0;entryDy=0;endArrow=none;endFill=0;" edge="1" parent="1" source="634n50XaCfVM70tC2YM0-6" target="kL7tGmFYRtekbOon5jF7-5">
          <mxGeometry relative="1" as="geometry" />
        </mxCell>
        <mxCell id="634n50XaCfVM70tC2YM0-6" value="&lt;b&gt;&lt;u&gt;InventoryID&lt;/u&gt;&lt;/b&gt;" style="ellipse;whiteSpace=wrap;html=1;" vertex="1" parent="1">
          <mxGeometry x="-3190" y="240" width="120" height="30" as="geometry" />
        </mxCell>
        <mxCell id="634n50XaCfVM70tC2YM0-9" style="rounded=0;orthogonalLoop=1;jettySize=auto;html=1;exitX=0.5;exitY=0;exitDx=0;exitDy=0;entryX=0.5;entryY=1;entryDx=0;entryDy=0;endArrow=none;endFill=0;" edge="1" parent="1" source="634n50XaCfVM70tC2YM0-7" target="kL7tGmFYRtekbOon5jF7-5">
          <mxGeometry relative="1" as="geometry" />
        </mxCell>
        <mxCell id="634n50XaCfVM70tC2YM0-7" value="StockQuantity" style="ellipse;whiteSpace=wrap;html=1;" vertex="1" parent="1">
          <mxGeometry x="-2980" y="440" width="120" height="40" as="geometry" />
        </mxCell>
        <mxCell id="634n50XaCfVM70tC2YM0-11" value="" style="rounded=0;orthogonalLoop=1;jettySize=auto;html=1;exitX=0.25;exitY=1;exitDx=0;exitDy=0;entryX=0;entryY=1;entryDx=0;entryDy=0;endArrow=none;endFill=0;" edge="1" parent="1" source="iBV01ZASUmmkMeYfeegj-69" target="634n50XaCfVM70tC2YM0-10">
          <mxGeometry relative="1" as="geometry">
            <mxPoint x="-2560" y="-90" as="sourcePoint" />
            <mxPoint x="-2880" y="305" as="targetPoint" />
          </mxGeometry>
        </mxCell>
        <mxCell id="634n50XaCfVM70tC2YM0-10" value="has" style="rhombus;whiteSpace=wrap;html=1;" vertex="1" parent="1">
          <mxGeometry x="-2810" y="110" width="80" height="80" as="geometry" />
        </mxCell>
        <mxCell id="634n50XaCfVM70tC2YM0-14" style="rounded=0;orthogonalLoop=1;jettySize=auto;html=1;exitX=1;exitY=0.5;exitDx=0;exitDy=0;entryX=0;entryY=0.25;entryDx=0;entryDy=0;endArrow=none;endFill=0;" edge="1" parent="1" source="634n50XaCfVM70tC2YM0-21" target="iBV01ZASUmmkMeYfeegj-69">
          <mxGeometry relative="1" as="geometry" />
        </mxCell>
        <mxCell id="634n50XaCfVM70tC2YM0-17" style="rounded=0;orthogonalLoop=1;jettySize=auto;html=1;exitX=0;exitY=0.5;exitDx=0;exitDy=0;endArrow=none;endFill=0;" edge="1" parent="1" source="634n50XaCfVM70tC2YM0-13" target="634n50XaCfVM70tC2YM0-16">
          <mxGeometry relative="1" as="geometry" />
        </mxCell>
        <mxCell id="634n50XaCfVM70tC2YM0-13" value="Supplier" style="rounded=0;whiteSpace=wrap;html=1;" vertex="1" parent="1">
          <mxGeometry x="-3130" y="-205" width="120" height="60" as="geometry" />
        </mxCell>
        <mxCell id="634n50XaCfVM70tC2YM0-16" value="&lt;b&gt;&lt;u&gt;SupplierID&lt;/u&gt;&lt;/b&gt;" style="ellipse;whiteSpace=wrap;html=1;" vertex="1" parent="1">
          <mxGeometry x="-3340" y="-190" width="120" height="40" as="geometry" />
        </mxCell>
        <mxCell id="634n50XaCfVM70tC2YM0-20" style="rounded=0;orthogonalLoop=1;jettySize=auto;html=1;exitX=0.5;exitY=0;exitDx=0;exitDy=0;endArrow=none;endFill=0;" edge="1" parent="1" source="634n50XaCfVM70tC2YM0-19" target="634n50XaCfVM70tC2YM0-13">
          <mxGeometry relative="1" as="geometry" />
        </mxCell>
        <mxCell id="634n50XaCfVM70tC2YM0-19" value="Name" style="ellipse;whiteSpace=wrap;html=1;" vertex="1" parent="1">
          <mxGeometry x="-3160" y="-70" width="120" height="30" as="geometry" />
        </mxCell>
        <mxCell id="634n50XaCfVM70tC2YM0-22" value="" style="rounded=0;orthogonalLoop=1;jettySize=auto;html=1;exitX=1;exitY=0.5;exitDx=0;exitDy=0;entryX=0;entryY=0.25;entryDx=0;entryDy=0;endArrow=none;endFill=0;" edge="1" parent="1" source="634n50XaCfVM70tC2YM0-13" target="634n50XaCfVM70tC2YM0-21">
          <mxGeometry relative="1" as="geometry">
            <mxPoint x="-3010" y="-175" as="sourcePoint" />
            <mxPoint x="-2650" y="-75" as="targetPoint" />
          </mxGeometry>
        </mxCell>
        <mxCell id="634n50XaCfVM70tC2YM0-21" value="Supplies" style="rhombus;whiteSpace=wrap;html=1;" vertex="1" parent="1">
          <mxGeometry x="-2900" y="-175" width="80" height="80" as="geometry" />
        </mxCell>
        <mxCell id="634n50XaCfVM70tC2YM0-25" style="rounded=0;orthogonalLoop=1;jettySize=auto;html=1;exitX=0.5;exitY=0;exitDx=0;exitDy=0;endArrow=none;endFill=0;" edge="1" parent="1" source="634n50XaCfVM70tC2YM0-24" target="iBV01ZASUmmkMeYfeegj-69">
          <mxGeometry relative="1" as="geometry" />
        </mxCell>
        <mxCell id="634n50XaCfVM70tC2YM0-24" value="SupplierID" style="ellipse;whiteSpace=wrap;html=1;" vertex="1" parent="1">
          <mxGeometry x="-2605" y="80" width="120" height="40" as="geometry" />
        </mxCell>
        <mxCell id="634n50XaCfVM70tC2YM0-27" value="1" style="text;html=1;align=center;verticalAlign=middle;resizable=0;points=[];autosize=1;strokeColor=none;fillColor=none;" vertex="1" parent="1">
          <mxGeometry x="-2990" y="-150" width="30" height="30" as="geometry" />
        </mxCell>
        <mxCell id="634n50XaCfVM70tC2YM0-29" value="N" style="text;html=1;align=center;verticalAlign=middle;resizable=0;points=[];autosize=1;strokeColor=none;fillColor=none;" vertex="1" parent="1">
          <mxGeometry x="-2770" y="-105" width="30" height="30" as="geometry" />
        </mxCell>
        <mxCell id="634n50XaCfVM70tC2YM0-30" value="1" style="text;html=1;align=center;verticalAlign=middle;resizable=0;points=[];autosize=1;strokeColor=none;fillColor=none;" vertex="1" parent="1">
          <mxGeometry x="-2690" y="60" width="30" height="30" as="geometry" />
        </mxCell>
        <mxCell id="634n50XaCfVM70tC2YM0-31" value="1" style="text;html=1;align=center;verticalAlign=middle;resizable=0;points=[];autosize=1;strokeColor=none;fillColor=none;" vertex="1" parent="1">
          <mxGeometry x="-2840" y="210" width="30" height="30" as="geometry" />
        </mxCell>
        <mxCell id="nS5XHW2_tB0IHZ0vW5Lq-1" value="1" style="text;html=1;align=center;verticalAlign=middle;resizable=0;points=[];autosize=1;strokeColor=none;fillColor=none;" vertex="1" parent="1">
          <mxGeometry x="-1600" y="-425" width="30" height="30" as="geometry" />
        </mxCell>
        <mxCell id="nS5XHW2_tB0IHZ0vW5Lq-2" value="1" style="text;html=1;align=center;verticalAlign=middle;resizable=0;points=[];autosize=1;strokeColor=none;fillColor=none;" vertex="1" parent="1">
          <mxGeometry x="-1600" y="-640" width="30" height="30" as="geometry" />
        </mxCell>
      </root>
    </mxGraphModel>
  </diagram>
</mxfile>
